<mxfile host="app.diagrams.net" modified="2023-11-25T04:03:02.204Z" agent="Mozilla/5.0 (Windows NT 10.0; Win64; x64) AppleWebKit/537.36 (KHTML, like Gecko) Chrome/119.0.0.0 Safari/537.36" etag="i8XlzegNwJcQ7oPH_jQe" version="22.1.4" type="github">
  <diagram name="Page-1" id="fqCpqmMDp9zca7ltg2zC">
    <mxGraphModel dx="1050" dy="591" grid="1" gridSize="10" guides="1" tooltips="1" connect="1" arrows="1" fold="1" page="1" pageScale="1" pageWidth="850" pageHeight="1100" math="0" shadow="0">
      <root>
        <mxCell id="0" />
        <mxCell id="1" parent="0" />
        <mxCell id="QZ4CJmb24g2EBJmBMlFp-23" value="" style="rounded=0;whiteSpace=wrap;html=1;fillColor=none;" parent="1" vertex="1">
          <mxGeometry x="360" y="550" width="200" height="390" as="geometry" />
        </mxCell>
        <mxCell id="QZ4CJmb24g2EBJmBMlFp-29" value="" style="rounded=0;whiteSpace=wrap;html=1;fillColor=none;" parent="1" vertex="1">
          <mxGeometry x="400" y="638" width="120" height="282" as="geometry" />
        </mxCell>
        <mxCell id="QZ4CJmb24g2EBJmBMlFp-7" value="" style="rounded=0;whiteSpace=wrap;html=1;fillColor=none;" parent="1" vertex="1">
          <mxGeometry x="221" y="30" width="459" height="450" as="geometry" />
        </mxCell>
        <mxCell id="QZ4CJmb24g2EBJmBMlFp-1" value="OakRam&lt;br&gt;Admin" style="shape=umlActor;verticalLabelPosition=bottom;verticalAlign=top;html=1;outlineConnect=0;" parent="1" vertex="1">
          <mxGeometry x="160" y="125" width="30" height="60" as="geometry" />
        </mxCell>
        <mxCell id="QZ4CJmb24g2EBJmBMlFp-2" value="Customer" style="shape=umlActor;verticalLabelPosition=bottom;verticalAlign=top;html=1;outlineConnect=0;" parent="1" vertex="1">
          <mxGeometry x="270" y="710" width="30" height="60" as="geometry" />
        </mxCell>
        <mxCell id="QZ4CJmb24g2EBJmBMlFp-3" value="Login" style="ellipse;whiteSpace=wrap;html=1;" parent="1" vertex="1">
          <mxGeometry x="405.5" y="50" width="90" height="50" as="geometry" />
        </mxCell>
        <mxCell id="QZ4CJmb24g2EBJmBMlFp-4" value="Manage&lt;br&gt;Restaurants" style="ellipse;whiteSpace=wrap;html=1;" parent="1" vertex="1">
          <mxGeometry x="256" y="135" width="90" height="50" as="geometry" />
        </mxCell>
        <mxCell id="QZ4CJmb24g2EBJmBMlFp-5" value="Logout" style="ellipse;whiteSpace=wrap;html=1;" parent="1" vertex="1">
          <mxGeometry x="256" y="195" width="90" height="50" as="geometry" />
        </mxCell>
        <mxCell id="QZ4CJmb24g2EBJmBMlFp-9" value="" style="endArrow=none;html=1;rounded=0;" parent="1" source="QZ4CJmb24g2EBJmBMlFp-1" target="QZ4CJmb24g2EBJmBMlFp-3" edge="1">
          <mxGeometry width="50" height="50" relative="1" as="geometry">
            <mxPoint x="190" y="145" as="sourcePoint" />
            <mxPoint x="240" y="95" as="targetPoint" />
          </mxGeometry>
        </mxCell>
        <mxCell id="QZ4CJmb24g2EBJmBMlFp-10" value="" style="endArrow=none;html=1;rounded=0;entryX=0.219;entryY=0.5;entryDx=0;entryDy=0;entryPerimeter=0;" parent="1" source="QZ4CJmb24g2EBJmBMlFp-1" edge="1">
          <mxGeometry width="50" height="50" relative="1" as="geometry">
            <mxPoint x="190" y="145" as="sourcePoint" />
            <mxPoint x="256.03999999999996" y="156" as="targetPoint" />
          </mxGeometry>
        </mxCell>
        <mxCell id="QZ4CJmb24g2EBJmBMlFp-11" value="" style="endArrow=none;html=1;rounded=0;" parent="1" source="QZ4CJmb24g2EBJmBMlFp-1" target="QZ4CJmb24g2EBJmBMlFp-5" edge="1">
          <mxGeometry width="50" height="50" relative="1" as="geometry">
            <mxPoint x="196" y="145" as="sourcePoint" />
            <mxPoint x="266.03999999999996" y="166" as="targetPoint" />
          </mxGeometry>
        </mxCell>
        <mxCell id="QZ4CJmb24g2EBJmBMlFp-13" value="Enter name" style="ellipse;whiteSpace=wrap;html=1;" parent="1" vertex="1">
          <mxGeometry x="415" y="648" width="90" height="50" as="geometry" />
        </mxCell>
        <mxCell id="QZ4CJmb24g2EBJmBMlFp-14" value="Order Food" style="ellipse;whiteSpace=wrap;html=1;" parent="1" vertex="1">
          <mxGeometry x="415" y="708" width="90" height="50" as="geometry" />
        </mxCell>
        <mxCell id="QZ4CJmb24g2EBJmBMlFp-15" value="Payment" style="ellipse;whiteSpace=wrap;html=1;" parent="1" vertex="1">
          <mxGeometry x="415" y="770" width="90" height="50" as="geometry" />
        </mxCell>
        <mxCell id="QZ4CJmb24g2EBJmBMlFp-16" value="Reorder" style="ellipse;whiteSpace=wrap;html=1;" parent="1" vertex="1">
          <mxGeometry x="415" y="858" width="90" height="50" as="geometry" />
        </mxCell>
        <mxCell id="QZ4CJmb24g2EBJmBMlFp-18" value="" style="endArrow=none;html=1;rounded=0;entryX=0.5;entryY=0;entryDx=0;entryDy=0;exitX=0.5;exitY=1;exitDx=0;exitDy=0;dashed=1;dashPattern=1 1;jumpSize=0;jumpStyle=gap;endFill=0;startArrow=classic;startFill=1;" parent="1" source="QZ4CJmb24g2EBJmBMlFp-15" target="QZ4CJmb24g2EBJmBMlFp-16" edge="1">
          <mxGeometry width="50" height="50" relative="1" as="geometry">
            <mxPoint x="385" y="860" as="sourcePoint" />
            <mxPoint x="435" y="810" as="targetPoint" />
          </mxGeometry>
        </mxCell>
        <mxCell id="QZ4CJmb24g2EBJmBMlFp-20" value="&amp;lt;&amp;lt;Include&amp;gt;&amp;gt;" style="edgeLabel;html=1;align=center;verticalAlign=middle;resizable=0;points=[];" parent="QZ4CJmb24g2EBJmBMlFp-18" vertex="1" connectable="0">
          <mxGeometry x="-0.0694" y="-1" relative="1" as="geometry">
            <mxPoint as="offset" />
          </mxGeometry>
        </mxCell>
        <mxCell id="QZ4CJmb24g2EBJmBMlFp-26" value="" style="endArrow=none;html=1;rounded=0;entryX=0;entryY=0.5;entryDx=0;entryDy=0;" parent="1" source="QZ4CJmb24g2EBJmBMlFp-2" target="QZ4CJmb24g2EBJmBMlFp-30" edge="1">
          <mxGeometry width="50" height="50" relative="1" as="geometry">
            <mxPoint x="385" y="840" as="sourcePoint" />
            <mxPoint x="325" y="690" as="targetPoint" />
          </mxGeometry>
        </mxCell>
        <mxCell id="QZ4CJmb24g2EBJmBMlFp-28" value="Restaurant&lt;br&gt;Admin" style="shape=umlActor;verticalLabelPosition=bottom;verticalAlign=top;html=1;outlineConnect=0;" parent="1" vertex="1">
          <mxGeometry x="710" y="100" width="30" height="60" as="geometry" />
        </mxCell>
        <mxCell id="QZ4CJmb24g2EBJmBMlFp-30" value="QR" style="ellipse;whiteSpace=wrap;html=1;" parent="1" vertex="1">
          <mxGeometry x="415" y="560" width="90" height="50" as="geometry" />
        </mxCell>
        <mxCell id="QZ4CJmb24g2EBJmBMlFp-31" value="" style="endArrow=classic;html=1;rounded=0;exitX=0.5;exitY=1;exitDx=0;exitDy=0;entryX=0.5;entryY=0;entryDx=0;entryDy=0;dashed=1;dashPattern=1 2;" parent="1" source="QZ4CJmb24g2EBJmBMlFp-30" target="QZ4CJmb24g2EBJmBMlFp-29" edge="1">
          <mxGeometry width="50" height="50" relative="1" as="geometry">
            <mxPoint x="205" y="680" as="sourcePoint" />
            <mxPoint x="255" y="630" as="targetPoint" />
          </mxGeometry>
        </mxCell>
        <mxCell id="QZ4CJmb24g2EBJmBMlFp-32" value="&amp;lt;&amp;lt;Include&amp;gt;&amp;gt;" style="edgeLabel;html=1;align=left;verticalAlign=middle;resizable=0;points=[];" parent="QZ4CJmb24g2EBJmBMlFp-31" vertex="1" connectable="0">
          <mxGeometry x="-0.2773" y="1" relative="1" as="geometry">
            <mxPoint as="offset" />
          </mxGeometry>
        </mxCell>
        <mxCell id="QZ4CJmb24g2EBJmBMlFp-36" value="" style="endArrow=none;html=1;rounded=0;" parent="1" source="QZ4CJmb24g2EBJmBMlFp-3" target="QZ4CJmb24g2EBJmBMlFp-28" edge="1">
          <mxGeometry width="50" height="50" relative="1" as="geometry">
            <mxPoint x="495.5" y="164" as="sourcePoint" />
            <mxPoint x="716.5" y="100" as="targetPoint" />
          </mxGeometry>
        </mxCell>
        <mxCell id="QZ4CJmb24g2EBJmBMlFp-37" value="Restaurant&lt;br&gt;Dashboard" style="ellipse;whiteSpace=wrap;html=1;" parent="1" vertex="1">
          <mxGeometry x="520" y="180" width="90" height="50" as="geometry" />
        </mxCell>
        <mxCell id="QZ4CJmb24g2EBJmBMlFp-38" value="Management&lt;br&gt;Dashboard" style="ellipse;whiteSpace=wrap;html=1;" parent="1" vertex="1">
          <mxGeometry x="400" y="180" width="90" height="50" as="geometry" />
        </mxCell>
        <mxCell id="QZ4CJmb24g2EBJmBMlFp-41" value="" style="endArrow=classic;html=1;rounded=0;exitX=0.5;exitY=1;exitDx=0;exitDy=0;dashed=1;dashPattern=1 2;" parent="1" target="QZ4CJmb24g2EBJmBMlFp-37" edge="1">
          <mxGeometry width="50" height="50" relative="1" as="geometry">
            <mxPoint x="450.13" y="100" as="sourcePoint" />
            <mxPoint x="450.13" y="128" as="targetPoint" />
          </mxGeometry>
        </mxCell>
        <mxCell id="QZ4CJmb24g2EBJmBMlFp-45" value="&amp;lt;&amp;lt;Include&amp;gt;&amp;gt;" style="edgeLabel;html=1;align=center;verticalAlign=middle;resizable=0;points=[];" parent="QZ4CJmb24g2EBJmBMlFp-41" vertex="1" connectable="0">
          <mxGeometry x="-0.0682" y="-1" relative="1" as="geometry">
            <mxPoint x="-1" as="offset" />
          </mxGeometry>
        </mxCell>
        <mxCell id="QZ4CJmb24g2EBJmBMlFp-44" value="" style="endArrow=classic;html=1;rounded=0;exitX=0.5;exitY=1;exitDx=0;exitDy=0;dashed=1;dashPattern=1 2;" parent="1" source="QZ4CJmb24g2EBJmBMlFp-3" target="QZ4CJmb24g2EBJmBMlFp-38" edge="1">
          <mxGeometry width="50" height="50" relative="1" as="geometry">
            <mxPoint x="460.13" y="110" as="sourcePoint" />
            <mxPoint x="479" y="180" as="targetPoint" />
          </mxGeometry>
        </mxCell>
        <mxCell id="QZ4CJmb24g2EBJmBMlFp-46" value="&amp;lt;&amp;lt;Include&amp;gt;&amp;gt;" style="edgeLabel;html=1;align=center;verticalAlign=middle;resizable=0;points=[];" parent="QZ4CJmb24g2EBJmBMlFp-44" vertex="1" connectable="0">
          <mxGeometry x="0.334" y="2" relative="1" as="geometry">
            <mxPoint as="offset" />
          </mxGeometry>
        </mxCell>
        <mxCell id="QZ4CJmb24g2EBJmBMlFp-47" value="" style="endArrow=classic;html=1;rounded=0;exitX=0.5;exitY=1;exitDx=0;exitDy=0;dashed=1;dashPattern=1 2;" parent="1" source="QZ4CJmb24g2EBJmBMlFp-3" target="QZ4CJmb24g2EBJmBMlFp-4" edge="1">
          <mxGeometry width="50" height="50" relative="1" as="geometry">
            <mxPoint x="460.13" y="110" as="sourcePoint" />
            <mxPoint x="479" y="180" as="targetPoint" />
          </mxGeometry>
        </mxCell>
        <mxCell id="QZ4CJmb24g2EBJmBMlFp-48" value="&amp;lt;&amp;lt;Include&amp;gt;&amp;gt;" style="edgeLabel;html=1;align=center;verticalAlign=middle;resizable=0;points=[];" parent="QZ4CJmb24g2EBJmBMlFp-47" vertex="1" connectable="0">
          <mxGeometry x="-0.0682" y="-1" relative="1" as="geometry">
            <mxPoint x="-1" as="offset" />
          </mxGeometry>
        </mxCell>
        <mxCell id="QZ4CJmb24g2EBJmBMlFp-49" value="" style="endArrow=none;html=1;rounded=0;" parent="1" source="QZ4CJmb24g2EBJmBMlFp-37" target="QZ4CJmb24g2EBJmBMlFp-28" edge="1">
          <mxGeometry width="50" height="50" relative="1" as="geometry">
            <mxPoint x="502" y="95" as="sourcePoint" />
            <mxPoint x="720" y="146" as="targetPoint" />
          </mxGeometry>
        </mxCell>
        <mxCell id="QZ4CJmb24g2EBJmBMlFp-50" value="" style="endArrow=none;html=1;rounded=0;" parent="1" source="QZ4CJmb24g2EBJmBMlFp-38" target="QZ4CJmb24g2EBJmBMlFp-28" edge="1">
          <mxGeometry width="50" height="50" relative="1" as="geometry">
            <mxPoint x="526" y="194" as="sourcePoint" />
            <mxPoint x="720" y="144" as="targetPoint" />
          </mxGeometry>
        </mxCell>
        <mxCell id="QZ4CJmb24g2EBJmBMlFp-52" value="" style="rounded=0;whiteSpace=wrap;html=1;" parent="1" vertex="1">
          <mxGeometry x="348.5" y="260" width="115" height="205" as="geometry" />
        </mxCell>
        <mxCell id="QZ4CJmb24g2EBJmBMlFp-53" value="Manage&lt;br&gt;Employee" style="ellipse;whiteSpace=wrap;html=1;" parent="1" vertex="1">
          <mxGeometry x="361" y="269" width="90" height="40" as="geometry" />
        </mxCell>
        <mxCell id="QZ4CJmb24g2EBJmBMlFp-54" value="Manage&lt;br&gt;Salary" style="ellipse;whiteSpace=wrap;html=1;" parent="1" vertex="1">
          <mxGeometry x="361" y="315" width="90" height="40" as="geometry" />
        </mxCell>
        <mxCell id="QZ4CJmb24g2EBJmBMlFp-55" value="Manage Roles" style="ellipse;whiteSpace=wrap;html=1;" parent="1" vertex="1">
          <mxGeometry x="361" y="361" width="90" height="40" as="geometry" />
        </mxCell>
        <mxCell id="QZ4CJmb24g2EBJmBMlFp-56" value="Show Report" style="ellipse;whiteSpace=wrap;html=1;" parent="1" vertex="1">
          <mxGeometry x="361" y="409" width="90" height="40" as="geometry" />
        </mxCell>
        <mxCell id="QZ4CJmb24g2EBJmBMlFp-57" value="" style="endArrow=classic;html=1;rounded=0;dashed=1;dashPattern=1 2;entryX=0.5;entryY=0;entryDx=0;entryDy=0;" parent="1" source="QZ4CJmb24g2EBJmBMlFp-38" target="QZ4CJmb24g2EBJmBMlFp-52" edge="1">
          <mxGeometry width="50" height="50" relative="1" as="geometry">
            <mxPoint x="406" y="230" as="sourcePoint" />
            <mxPoint x="458.5" y="295" as="targetPoint" />
          </mxGeometry>
        </mxCell>
        <mxCell id="QZ4CJmb24g2EBJmBMlFp-58" value="&amp;lt;&amp;lt;Include&amp;gt;&amp;gt;" style="edgeLabel;html=1;align=center;verticalAlign=middle;resizable=0;points=[];" parent="QZ4CJmb24g2EBJmBMlFp-57" vertex="1" connectable="0">
          <mxGeometry x="0.334" y="2" relative="1" as="geometry">
            <mxPoint x="33" y="-5" as="offset" />
          </mxGeometry>
        </mxCell>
        <mxCell id="QZ4CJmb24g2EBJmBMlFp-59" value="" style="rounded=0;whiteSpace=wrap;html=1;" parent="1" vertex="1">
          <mxGeometry x="468.5" y="260" width="201.5" height="205" as="geometry" />
        </mxCell>
        <mxCell id="QZ4CJmb24g2EBJmBMlFp-67" value="" style="edgeStyle=orthogonalEdgeStyle;rounded=0;orthogonalLoop=1;jettySize=auto;html=1;dashed=1;dashPattern=1 2;" parent="1" source="QZ4CJmb24g2EBJmBMlFp-60" target="QZ4CJmb24g2EBJmBMlFp-66" edge="1">
          <mxGeometry relative="1" as="geometry" />
        </mxCell>
        <mxCell id="QZ4CJmb24g2EBJmBMlFp-60" value="Manage Table" style="ellipse;whiteSpace=wrap;html=1;" parent="1" vertex="1">
          <mxGeometry x="481" y="265" width="90" height="40" as="geometry" />
        </mxCell>
        <mxCell id="QZ4CJmb24g2EBJmBMlFp-61" value="Edit Menu" style="ellipse;whiteSpace=wrap;html=1;" parent="1" vertex="1">
          <mxGeometry x="481" y="311" width="90" height="40" as="geometry" />
        </mxCell>
        <mxCell id="QZ4CJmb24g2EBJmBMlFp-62" value="Manage Order" style="ellipse;whiteSpace=wrap;html=1;" parent="1" vertex="1">
          <mxGeometry x="481" y="357" width="90" height="40" as="geometry" />
        </mxCell>
        <mxCell id="QZ4CJmb24g2EBJmBMlFp-63" value="Edit &lt;br&gt;Restaurant&lt;br&gt;Info" style="ellipse;whiteSpace=wrap;html=1;" parent="1" vertex="1">
          <mxGeometry x="481" y="405" width="90" height="40" as="geometry" />
        </mxCell>
        <mxCell id="QZ4CJmb24g2EBJmBMlFp-64" value="" style="endArrow=classic;html=1;rounded=0;dashed=1;dashPattern=1 2;entryX=0.5;entryY=0;entryDx=0;entryDy=0;" parent="1" source="QZ4CJmb24g2EBJmBMlFp-37" target="QZ4CJmb24g2EBJmBMlFp-59" edge="1">
          <mxGeometry width="50" height="50" relative="1" as="geometry">
            <mxPoint x="526" y="230" as="sourcePoint" />
            <mxPoint x="578.5" y="295" as="targetPoint" />
          </mxGeometry>
        </mxCell>
        <mxCell id="QZ4CJmb24g2EBJmBMlFp-65" value="&amp;lt;&amp;lt;Include&amp;gt;&amp;gt;" style="edgeLabel;html=1;align=center;verticalAlign=middle;resizable=0;points=[];" parent="QZ4CJmb24g2EBJmBMlFp-64" vertex="1" connectable="0">
          <mxGeometry x="0.334" y="2" relative="1" as="geometry">
            <mxPoint x="33" y="-5" as="offset" />
          </mxGeometry>
        </mxCell>
        <mxCell id="QZ4CJmb24g2EBJmBMlFp-66" value="Generate QR" style="ellipse;whiteSpace=wrap;html=1;" parent="1" vertex="1">
          <mxGeometry x="594" y="267.5" width="70" height="35" as="geometry" />
        </mxCell>
        <mxCell id="QZ4CJmb24g2EBJmBMlFp-68" value="&amp;lt;&amp;lt;Include&amp;gt;&amp;gt;" style="edgeLabel;html=1;align=center;verticalAlign=middle;resizable=0;points=[];" parent="1" vertex="1" connectable="0">
          <mxGeometry x="585.0019611279727" y="300.0026489311498" as="geometry" />
        </mxCell>
        <mxCell id="QZ4CJmb24g2EBJmBMlFp-69" value="" style="endArrow=classic;html=1;rounded=0;exitX=0.5;exitY=1;exitDx=0;exitDy=0;dashed=1;dashPattern=1 1;" parent="1" source="QZ4CJmb24g2EBJmBMlFp-66" edge="1">
          <mxGeometry width="50" height="50" relative="1" as="geometry">
            <mxPoint x="590" y="400" as="sourcePoint" />
            <mxPoint x="630" y="350" as="targetPoint" />
          </mxGeometry>
        </mxCell>
        <mxCell id="QZ4CJmb24g2EBJmBMlFp-71" value="&amp;lt;&amp;lt;Extends&amp;gt;&amp;gt;" style="edgeLabel;html=1;align=center;verticalAlign=middle;resizable=0;points=[];" parent="QZ4CJmb24g2EBJmBMlFp-69" vertex="1" connectable="0">
          <mxGeometry x="0.0372" relative="1" as="geometry">
            <mxPoint as="offset" />
          </mxGeometry>
        </mxCell>
        <mxCell id="QZ4CJmb24g2EBJmBMlFp-70" value="QR" style="ellipse;whiteSpace=wrap;html=1;" parent="1" vertex="1">
          <mxGeometry x="594" y="351" width="70" height="35" as="geometry" />
        </mxCell>
        <mxCell id="QZ4CJmb24g2EBJmBMlFp-72" value="Customer" style="shape=umlActor;verticalLabelPosition=bottom;verticalAlign=top;html=1;outlineConnect=0;" parent="1" vertex="1">
          <mxGeometry x="730" y="339" width="30" height="60" as="geometry" />
        </mxCell>
        <mxCell id="QZ4CJmb24g2EBJmBMlFp-73" value="" style="endArrow=none;html=1;rounded=0;" parent="1" source="QZ4CJmb24g2EBJmBMlFp-70" target="QZ4CJmb24g2EBJmBMlFp-72" edge="1">
          <mxGeometry width="50" height="50" relative="1" as="geometry">
            <mxPoint x="585" y="421" as="sourcePoint" />
            <mxPoint x="802" y="465" as="targetPoint" />
          </mxGeometry>
        </mxCell>
        <mxCell id="QZ4CJmb24g2EBJmBMlFp-74" value="Fig. (a)" style="text;html=1;align=center;verticalAlign=middle;resizable=0;points=[];autosize=1;strokeColor=none;fillColor=none;" parent="1" vertex="1">
          <mxGeometry x="435.5" y="480" width="60" height="30" as="geometry" />
        </mxCell>
        <mxCell id="QZ4CJmb24g2EBJmBMlFp-75" value="Fig. (b)" style="text;html=1;align=center;verticalAlign=middle;resizable=0;points=[];autosize=1;strokeColor=none;fillColor=none;" parent="1" vertex="1">
          <mxGeometry x="425" y="950" width="60" height="30" as="geometry" />
        </mxCell>
      </root>
    </mxGraphModel>
  </diagram>
</mxfile>
